<svg width="11" height="10" viewBox="0 0 11 10" fill="none" xmlns="http://www.w3.org/2000/svg">
<circle cx="5.5" cy="5" r="5" fill="#C94D3F"/>
<path d="M6.17669 5.85626L6.52669 5.50626C6.57383 5.4597 6.63347 5.42783 6.69838 5.41452C6.76328 5.4012 6.83065 5.40702 6.89231 5.43126L7.31888 5.60157C7.38119 5.62686 7.43462 5.67004 7.47244 5.72565C7.51025 5.78126 7.53076 5.84682 7.53138 5.91407V6.69532C7.53101 6.74107 7.5214 6.78627 7.50311 6.8282C7.48481 6.87013 7.45823 6.90793 7.42494 6.93931C7.39166 6.9707 7.35237 6.99502 7.30944 7.01083C7.2665 7.02663 7.22082 7.03358 7.17513 7.03126C4.18607 6.84532 3.58294 4.31407 3.46888 3.34532C3.46358 3.29775 3.46842 3.24959 3.48307 3.20402C3.49772 3.15846 3.52186 3.11651 3.55389 3.08093C3.58592 3.04536 3.62511 3.01698 3.6689 2.99764C3.71269 2.97831 3.76007 2.96846 3.80794 2.96876H4.56263C4.62997 2.96896 4.69572 2.9893 4.75141 3.02717C4.8071 3.06504 4.85018 3.1187 4.87513 3.18126L5.04544 3.60782C5.07048 3.66924 5.07687 3.73667 5.06381 3.8017C5.05075 3.86672 5.01882 3.92646 4.972 3.97344L4.622 4.32344C4.622 4.32344 4.82356 5.68751 6.17669 5.85626Z" fill="white"/>
</svg>
