<svg width="65" height="68" viewBox="0 0 65 68" fill="none" xmlns="http://www.w3.org/2000/svg">
<circle cx="32.5" cy="34.0317" r="32.5" fill="#0156FF"/>
<path d="M35.82 46.18L33 49L30.18 46.18C24.6375 44.9 20.5 39.93 20.5 34C20.5 27.1 26.1 21.5 33 21.5C39.9 21.5 45.5 27.1 45.5 34C45.5 39.93 41.3625 44.9 35.82 46.18ZM25.5287 38.27C27.3637 41.0075 30.1187 42.75 33.2 42.75C36.28 42.75 39.0362 41.0088 40.87 38.27C38.7897 36.3257 36.0474 35.246 33.2 35.25C30.3521 35.2457 27.6094 36.3255 25.5287 38.27ZM33 32.75C33.9946 32.75 34.9484 32.3549 35.6517 31.6517C36.3549 30.9484 36.75 29.9946 36.75 29C36.75 28.0054 36.3549 27.0516 35.6517 26.3483C34.9484 25.6451 33.9946 25.25 33 25.25C32.0054 25.25 31.0516 25.6451 30.3483 26.3483C29.6451 27.0516 29.25 28.0054 29.25 29C29.25 29.9946 29.6451 30.9484 30.3483 31.6517C31.0516 32.3549 32.0054 32.75 33 32.75Z" fill="white"/>
</svg>
