<svg width="65" height="68" viewBox="0 0 65 68" fill="none" xmlns="http://www.w3.org/2000/svg">
<circle cx="32.5" cy="34.0317" r="32.5" fill="#0156FF"/>
<g clip-path="url(#clip0_1589_3970)">
<path d="M45.2047 22.5264C45.1293 22.3386 44.9844 22.187 44.8001 22.1033C44.6158 22.0196 44.4063 22.0102 44.2152 22.077C44.0242 22.1439 43.8662 22.2818 43.7742 22.4621C43.6823 22.6424 43.6633 22.8512 43.7214 23.0451C44.9291 26.5161 42.5319 29.1083 40.7041 30.4967L39.9657 29.4385C39.7174 29.0836 39.1623 28.7885 38.7307 28.7833L34.5863 28.8015C34.08 28.8168 33.5873 28.9686 33.1602 29.2409L20.948 37.804C20.6639 38.0039 20.4707 38.3082 20.4105 38.6503C20.3503 38.9924 20.4281 39.3444 20.6269 39.6292L26.1766 47.5696C26.5926 48.1611 27.2569 48.0896 27.8497 47.6762L40.0619 39.1118C40.4129 38.8635 40.8185 38.3279 40.9615 37.9184L42.2589 33.8299C42.4019 33.4217 42.3148 32.799 42.0665 32.4441L41.6167 31.7993C44.0711 29.9182 46.6191 26.5941 45.2047 22.5264ZM39.5224 34.6918C39.2974 34.8493 39.0436 34.9609 38.7755 35.0203C38.5074 35.0796 38.2302 35.0856 37.9597 35.0378C37.6893 34.9899 37.431 34.8893 37.1994 34.7416C36.9679 34.5939 36.7678 34.4021 36.6104 34.177C36.2918 33.7216 36.1669 33.1583 36.2632 32.6109C36.3595 32.0635 36.669 31.5766 37.1239 31.2572C37.4805 31.0074 37.9063 30.8752 38.3416 30.8791C38.777 30.8831 39.2003 31.023 39.5523 31.2793C39.1987 31.4925 38.9556 31.6173 38.9101 31.6368C38.749 31.7136 38.6187 31.8429 38.5406 32.0035C38.4626 32.1641 38.4414 32.3464 38.4805 32.5206C38.5196 32.6948 38.6168 32.8505 38.756 32.9622C38.8952 33.074 39.0683 33.1352 39.2468 33.1357C39.3586 33.1357 39.473 33.1097 39.5809 33.059C39.8331 32.9394 40.1035 32.7977 40.3856 32.63C40.4505 33.0201 40.4039 33.4206 40.2512 33.7853C40.0985 34.1501 39.8459 34.4643 39.5224 34.6918Z" fill="white"/>
</g>
<defs>
<clipPath id="clip0_1589_3970">
<rect width="26" height="26" fill="white" transform="translate(20 22)"/>
</clipPath>
</defs>
</svg>
