<svg width="65" height="68" viewBox="0 0 65 68" fill="none" xmlns="http://www.w3.org/2000/svg">
<circle cx="32.5" cy="33.5" r="32.5" fill="#0156FF"/>
<path d="M32.9121 21.3923C26.1068 21.3923 20.5703 26.9289 20.5703 33.7341V38.8473C20.5703 40.1111 21.6774 41.1392 23.0387 41.1392H24.2728C24.6002 41.1392 24.9141 41.0091 25.1455 40.7777C25.377 40.5462 25.507 40.2323 25.507 39.905V33.5576C25.507 33.2303 25.377 32.9164 25.1455 32.6849C24.9141 32.4535 24.6002 32.3234 24.2728 32.3234H23.1522C23.8384 27.5472 27.9482 23.8607 32.9121 23.8607C37.8759 23.8607 41.9858 27.5472 42.672 32.3234H41.5513C41.224 32.3234 40.9101 32.4535 40.6786 32.6849C40.4472 32.9164 40.3172 33.2303 40.3172 33.5576V41.1392C40.3172 42.5005 39.2101 43.6075 37.8488 43.6075H35.3804V42.3733H30.4437V46.0759H37.8488C40.5714 46.0759 42.7855 43.8618 42.7855 41.1392C44.1468 41.1392 45.2539 40.1111 45.2539 38.8473V33.7341C45.2539 26.9289 39.7173 21.3923 32.9121 21.3923Z" fill="white"/>
</svg>
