<svg width="35" height="35" viewBox="0 0 35 35" fill="none" xmlns="http://www.w3.org/2000/svg">
<path d="M17 17C15.625 17 14.5 15.92 14.5 14.6C14.5 13.28 15.625 12.2 17 12.2C18.375 12.2 19.5 13.28 19.5 14.6C19.5 15.92 18.375 17 17 17ZM24.5 14.84C24.5 10.484 21.1875 7.4 17 7.4C12.8125 7.4 9.5 10.484 9.5 14.84C9.5 17.648 11.9375 21.368 17 25.808C22.0625 21.368 24.5 17.648 24.5 14.84ZM17 5C22.25 5 27 8.864 27 14.84C27 18.824 23.6625 23.54 17 29C10.3375 23.54 7 18.824 7 14.84C7 8.864 11.75 5 17 5Z" fill="#0156FF"/>
</svg>
