<svg width="35" height="22" viewBox="0 0 35 22" fill="none" xmlns="http://www.w3.org/2000/svg">
<g clip-path="url(#clip0_73_4137)">
<path d="M0.728516 2.76611C0.728516 1.2503 1.97145 0.0214844 3.50469 0.0214844H31.2664C32.7997 0.0214844 34.0426 1.2503 34.0426 2.76611V19.2339C34.0426 20.7497 32.7997 21.9785 31.2664 21.9785H3.50469C1.97145 21.9785 0.728516 20.7497 0.728516 19.2339V2.76611Z" fill="#D4DEF7"/>
<path d="M25.3134 6.79437L24.6688 8.19921H25.9615L25.3134 6.79437ZM17.8753 7.66492C17.9968 7.60791 18.0683 7.4839 18.0683 7.3299C18.0683 7.17899 17.9932 7.0697 17.8717 7.01834C17.761 6.9614 17.5908 6.95483 17.4275 6.95483H16.2743V7.73757H17.4121C17.5943 7.73761 17.7465 7.73521 17.8753 7.66492ZM3.09844 6.79437L2.46114 8.19921H3.73958L3.09844 6.79437ZM32.77 15.7942H30.9614V15.0383H32.7627C32.9412 15.0383 33.0663 15.0173 33.1416 14.951C33.2128 14.8919 33.253 14.8085 33.2523 14.7212C33.2523 14.6185 33.207 14.5369 33.1379 14.4881C33.07 14.4343 32.971 14.4098 32.8079 14.4098C31.9285 14.3829 30.8315 14.4342 30.8315 13.3188C30.8315 12.8076 31.1924 12.2695 32.1752 12.2695H34.0407V11.5682H32.3075C31.7845 11.5682 31.4044 11.6808 31.1354 11.8561V11.5682H28.5718C28.1619 11.5682 27.6807 11.6596 27.4531 11.8561V11.5682H22.8749V11.8561C22.5106 11.6197 21.8957 11.5682 21.6121 11.5682H18.5923V11.8561C18.3042 11.605 17.663 11.5682 17.2725 11.5682H13.8929L13.1196 12.3209L12.3953 11.5682H7.3468V16.4868H12.3L13.0968 15.722L13.8475 16.4868L16.9006 16.4893V15.3322H17.2009C17.606 15.338 18.0837 15.3233 18.5054 15.1594V16.4867H21.0237V15.2047H21.1452C21.3002 15.2047 21.3155 15.2105 21.3155 15.3498V16.4864H28.966C29.4517 16.4864 29.9594 16.3747 30.2405 16.1716V16.4864H32.6673C33.1722 16.4864 33.6654 16.4227 34.0406 16.2598V15.3435C33.8132 15.6427 33.3697 15.7944 32.7699 15.7944L32.77 15.7942ZM17.241 14.6328H16.0724V15.815H14.2522L13.0989 14.6482L11.9006 15.815H8.19091V12.2903H11.9576L13.1098 13.4457L14.301 12.2903H17.2935C18.0368 12.2903 18.8718 12.4754 18.8718 13.4515C18.8718 14.4307 18.0596 14.6328 17.241 14.6328ZM22.8601 14.473C22.9924 14.645 23.0115 14.8056 23.0153 15.1163V15.8151H22.075V15.3741C22.075 15.1621 22.0977 14.8481 21.9236 14.6842C21.7869 14.5579 21.5783 14.5278 21.2365 14.5278H20.2357V15.8151H19.2947V12.2903H21.4567C21.931 12.2903 22.2763 12.3093 22.5836 12.4566C22.8792 12.6172 23.0652 12.8373 23.0652 13.2394C23.0651 13.8019 22.648 14.0889 22.4014 14.1771C22.6098 14.2463 22.7801 14.3703 22.8601 14.473ZM26.7287 13.0192H24.5356V13.66H26.6751V14.3792H24.5356V15.0805L26.7287 15.0837V15.815H23.603V12.2903H26.7287V13.0192ZM29.1352 15.815H27.3112V15.0592H29.1279C29.3056 15.0592 29.4316 15.038 29.5105 14.9718C29.5749 14.9173 29.6212 14.8381 29.6212 14.7421C29.6212 14.6393 29.571 14.5577 29.5069 14.5088C29.4352 14.4551 29.3363 14.4308 29.1733 14.4308C28.2975 14.4038 27.2007 14.455 27.2007 13.3397C27.2007 12.8284 27.5579 12.2903 28.5397 12.2903H30.4173V13.0404H28.6992C28.5289 13.0404 28.4182 13.0463 28.3241 13.1042C28.2214 13.1613 28.1833 13.246 28.1833 13.3577C28.1833 13.4907 28.2705 13.5812 28.3882 13.6203C28.4871 13.6512 28.5931 13.6602 28.7527 13.6602L29.2569 13.6726C29.7651 13.6836 30.1142 13.7628 30.3264 13.956C30.5086 14.1257 30.6065 14.34 30.6065 14.7027C30.6064 15.461 30.0797 15.815 29.1352 15.815ZM21.8717 13.0761C21.7586 13.0156 21.5916 13.0124 21.4249 13.0124H20.2717V13.804H21.4095C21.5917 13.804 21.7466 13.7982 21.8717 13.7314C21.9931 13.6654 22.0658 13.5438 22.0658 13.3931C22.0658 13.2423 21.9931 13.1332 21.8717 13.0761ZM32.3356 13.0123C32.1652 13.0123 32.0519 13.0182 31.9566 13.076C31.8578 13.1332 31.8198 13.2178 31.8198 13.3296C31.8198 13.4625 31.9032 13.553 32.0246 13.5922C32.1235 13.6231 32.2294 13.6322 32.3854 13.6322L32.8931 13.6443C33.4052 13.6557 33.7473 13.735 33.9557 13.9282C33.9937 13.9549 34.0165 13.9851 34.0426 14.0153V13.0124H32.3356L32.3356 13.0123ZM17.2734 13.0123H16.0523V13.9101H17.2626C17.6224 13.9101 17.8461 13.7495 17.8463 13.4446C17.8461 13.1363 17.6115 13.0123 17.2734 13.0123ZM9.12368 13.0123V13.6532H11.1796V14.3724H9.12368V15.0736H11.4262L12.496 14.0396L11.4716 13.0123H9.12368ZM15.1361 15.4773V12.6514L13.6983 14.0416L15.1361 15.4773ZM9.20227 9.81806V10.4254H17.0266L17.0229 9.14056H17.1743C17.2804 9.14389 17.3112 9.15267 17.3112 9.31012V10.4254H21.358V10.1263C21.6844 10.2836 22.1921 10.4254 22.8601 10.4254H24.5626L24.9269 9.64273H25.7347L26.091 10.4254H29.3717V9.68194L29.8684 10.4254H32.4975V5.51074H29.8958V6.09117L29.5314 5.51074H26.8617V6.09117L26.5271 5.51074H22.9208C22.3171 5.51074 21.7866 5.58652 21.358 5.79773V5.51074H18.8693V5.79773C18.5965 5.58002 18.2248 5.51074 17.8117 5.51074H8.71971L8.10971 6.78018L7.48322 5.51074H4.61956V6.09117L4.3049 5.51074H1.86267L0.728558 7.84755V9.71674L2.40558 6.19277H3.79707L5.38977 9.52923V6.19277H6.91837L8.14397 8.58334L9.26992 6.19277H10.8292V9.71674H9.86925L9.86574 6.95683L8.5077 9.71674H7.68542L6.32391 6.95439V9.71674H4.41899L4.05914 8.93071H2.1092L1.74564 9.71674H0.728516V10.4257H2.32874L2.68952 9.64293H3.49736L3.8572 10.4257H7.00558V9.8272L7.28658 10.4282H8.92097L9.20201 9.81818L9.20227 9.81806ZM21.5317 6.60353C21.8343 6.32227 22.3086 6.19257 22.9539 6.19257H23.8606V6.94765H22.9729C22.6313 6.94765 22.4382 6.99336 22.2524 7.15646C22.0926 7.3048 21.9831 7.5853 21.9831 7.95464C21.9831 8.3322 22.0666 8.60439 22.2406 8.78221C22.3848 8.92165 22.6469 8.96395 22.8933 8.96395H23.3141L24.6339 6.19269H26.0371L27.6228 9.52582V6.19273H29.0487L30.6949 8.64697V6.19273H31.6542V9.71658H30.3271L28.5519 7.0717V9.71658H26.6446L26.2802 8.93055H24.3347L23.9811 9.71658H22.8852C22.43 9.71658 21.8537 9.62605 21.5273 9.3268C21.1981 9.02762 21.027 8.62231 21.027 7.98154C21.0268 7.45884 21.129 6.98109 21.5317 6.60353ZM19.6054 6.19261H20.561V9.71658H19.6054V6.19261ZM15.2971 6.19261H17.4511C17.9296 6.19261 18.2825 6.20404 18.5853 6.36141C18.8815 6.51881 19.0591 6.74863 19.0591 7.14162C19.0591 7.70353 18.6421 7.99377 18.3993 8.08097C18.6042 8.15114 18.7793 8.27506 18.8627 8.3777C18.9949 8.55299 19.0177 8.70956 19.0177 9.02425V9.71655H18.0731L18.0696 9.27215C18.0696 9.06005 18.0922 8.7551 17.9218 8.58567C17.785 8.46178 17.5763 8.4348 17.2391 8.4348H16.2338V9.71658H15.2973L15.2971 6.19261ZM11.5217 6.19261H14.6503V6.92644H12.4584V7.56164H14.5977V8.28401H12.4584V8.98777H14.6503V9.71655H11.5217V6.19261Z" fill="#2557D6"/>
</g>
<defs>
<clipPath id="clip0_73_4137">
<rect width="33.3141" height="21.957" fill="white" transform="translate(0.728516 0.0214844)"/>
</clipPath>
</defs>
</svg>
