<svg width="35" height="22" viewBox="0 0 35 22" fill="none" xmlns="http://www.w3.org/2000/svg">
<g clip-path="url(#clip0_73_4125)">
<path d="M0.657227 2.76611C0.657227 1.2503 1.92841 0.0214844 3.4965 0.0214844H31.8892C33.4573 0.0214844 34.7285 1.2503 34.7285 2.76611V19.2339C34.7285 20.7497 33.4573 21.9785 31.8892 21.9785H3.4965C1.92841 21.9785 0.657227 20.7497 0.657227 19.2339V2.76611Z" fill="#FCE0CF"/>
<path d="M20.943 10.9854C20.9456 10.3955 20.7168 9.80471 20.2563 9.35953C19.7948 8.91343 19.1822 8.69243 18.5706 8.69598C18.5677 8.69598 18.5649 8.6958 18.5618 8.6958C17.234 8.6958 16.1807 9.71374 16.1807 10.9977C16.1807 12.2691 17.2469 13.2995 18.5618 13.2995C19.8901 13.2995 20.9433 12.2814 20.9433 10.9977C20.9433 10.9935 20.943 10.9895 20.943 10.9854Z" fill="#F26E21"/>
<path d="M15.7391 11.9721C15.3832 12.3165 15.0547 12.4511 14.7008 12.4584C13.8389 12.4509 13.2051 11.8338 13.2051 10.954C13.2051 10.5112 13.3786 10.1482 13.6534 9.83814C13.9111 9.60166 14.243 9.44886 14.6248 9.44886C15.0369 9.44886 15.3576 9.58164 15.7237 9.93579V8.91766C15.3576 8.74068 15.0368 8.6521 14.6248 8.6521C14.0427 8.69232 13.4938 8.91969 13.0728 9.27671C12.9514 9.38225 12.8352 9.49875 12.7366 9.63208C12.429 10.0174 12.2432 10.4892 12.2432 10.9985C12.2432 12.282 13.2968 13.2559 14.6247 13.2559C14.6312 13.2559 14.6376 13.2554 14.6439 13.2553C14.6528 13.2554 14.6616 13.2559 14.6705 13.2559C15.0367 13.2559 15.3576 13.1676 15.7697 12.9905L15.7391 11.9721C15.7236 11.987 15.7544 12.0009 15.7391 12.0151V11.9721Z" fill="#2B2B2B"/>
<path d="M23.9501 9.28646L22.913 11.7512L21.7223 8.82935H20.7607L22.6382 13.3004H23.1419L25.1111 8.82935H24.1496L23.9501 9.28646Z" fill="#2B2B2B"/>
<path d="M25.4775 10.7772V13.1678H27.9505H27.9961V12.4593H27.2177H26.3934V11.6627V11.2644H27.9505V10.5116H26.3934V9.58203H27.9961V8.82935H25.4775V10.7772Z" fill="#2B2B2B"/>
<path d="M4.77858 8.83032H3.49609V13.1688H4.77851C5.46532 13.1688 5.96898 12.9916 6.38113 12.6817C6.88478 12.2833 7.20548 11.6637 7.20548 10.9998C7.20555 9.71566 6.2437 8.83032 4.77858 8.83032ZM5.83174 12.1064C5.55696 12.3276 5.1906 12.4603 4.64103 12.4603H4.36624V9.58294H4.59517C5.14475 9.58294 5.51111 9.67146 5.78596 9.93697C6.10647 10.2024 6.28974 10.6011 6.28974 10.9996C6.33553 11.398 6.15238 11.8405 5.83174 12.1064Z" fill="#2B2B2B"/>
<path d="M8.48825 8.8291H7.61816V13.1675H8.48825V8.8291Z" fill="#2B2B2B"/>
<path d="M10.6864 10.5121C10.137 10.3351 9.99942 10.2022 9.99942 9.98093C9.99942 9.71531 10.2742 9.494 10.6406 9.494C10.9154 9.494 11.1443 9.58258 11.3733 9.84821L11.8314 9.27276C11.4649 8.96275 11.0071 8.78589 10.5033 8.78589C9.72464 8.78589 9.08349 9.31714 9.08349 10.0252C9.08349 10.6451 9.35853 10.9107 10.1827 11.2205C10.5491 11.3531 10.6865 11.3976 10.7782 11.4861C10.9611 11.5745 11.0528 11.7517 11.0528 11.9286C11.0528 12.2828 10.7782 12.5485 10.3658 12.5485C9.95332 12.5485 9.58728 12.3272 9.40406 11.973L8.85449 12.5042C9.26683 13.0797 9.77055 13.3452 10.4117 13.3452C11.3275 13.3452 11.9683 12.7698 11.9683 11.9286C11.9685 11.1762 11.6939 10.8663 10.6864 10.5121Z" fill="#2B2B2B"/>
<path d="M30.4695 11.3526C31.1562 11.22 31.5227 10.7771 31.5227 10.1133C31.5227 9.31658 30.9273 8.82935 29.9199 8.82935H28.5918V13.1678H29.4619V11.4412H29.5994L30.8356 13.1678H31.889L30.4695 11.3526ZM29.7365 10.8213H29.4619V9.49344H29.7365C30.2861 9.49344 30.6068 9.71469 30.6068 10.1577C30.6068 10.6001 30.2862 10.8213 29.7365 10.8213Z" fill="#2B2B2B"/>
</g>
<defs>
<clipPath id="clip0_73_4125">
<rect width="34.0712" height="21.957" fill="white" transform="translate(0.657227 0.0214844)"/>
</clipPath>
</defs>
</svg>
