<svg width="36" height="22" viewBox="0 0 36 22" fill="none" xmlns="http://www.w3.org/2000/svg">
<g clip-path="url(#clip0_73_4110)">
<path d="M0.958008 2.76611C0.958008 1.2503 2.22919 0.0214844 3.79728 0.0214844H32.19C33.7581 0.0214844 35.0292 1.2503 35.0292 2.76611V19.2339C35.0292 20.7497 33.7581 21.9785 32.19 21.9785H3.79728C2.22919 21.9785 0.958008 20.7497 0.958008 19.2339V2.76611Z" fill="#CCDEFF"/>
<path d="M8.60292 7.92412C8.24704 7.68763 7.78265 7.56909 7.20975 7.56909H4.99178C4.81615 7.56909 4.71912 7.654 4.70069 7.82365L3.7997 13.2908C3.79034 13.3445 3.80424 13.3936 3.84127 13.4383C3.87809 13.483 3.9244 13.5053 3.97987 13.5053H5.03339C5.21817 13.5053 5.31973 13.4206 5.33838 13.2507L5.58786 11.7768C5.59697 11.7053 5.62947 11.6472 5.68493 11.6025C5.74035 11.5579 5.80967 11.5287 5.89285 11.5153C5.97602 11.502 6.05445 11.4953 6.12852 11.4953C6.20237 11.4953 6.29012 11.4999 6.39194 11.5088C6.49351 11.5177 6.55825 11.522 6.586 11.522C7.38072 11.522 8.00451 11.3056 8.45742 10.8721C8.91011 10.439 9.13672 9.83825 9.13672 9.06978C9.13672 8.54272 8.95863 8.16087 8.60292 7.924V7.92412ZM7.45936 9.56575C7.41301 9.87848 7.29301 10.0838 7.09895 10.1821C6.90485 10.2806 6.62761 10.3296 6.26724 10.3296L5.80976 10.3429L6.04547 8.90906C6.06386 8.81088 6.1239 8.76173 6.22563 8.76173H6.4891C6.85858 8.76173 7.12675 8.81322 7.2931 8.91578C7.45936 9.01859 7.51483 9.2353 7.45936 9.56575V9.56575Z" fill="#003087"/>
<path d="M32.0086 7.56909H30.9829C30.881 7.56909 30.821 7.61824 30.8027 7.71659L29.9016 13.2911L29.8877 13.3179C29.8877 13.3628 29.9062 13.405 29.9432 13.4452C29.98 13.4854 30.0264 13.5055 30.0818 13.5055H30.9968C31.1721 13.5055 31.2692 13.4208 31.288 13.2509L32.189 7.7702V7.75689C32.1889 7.63176 32.1287 7.56926 32.0086 7.56926V7.56909Z" fill="#009CDE"/>
<path d="M19.6159 9.72787C19.6159 9.68331 19.5973 9.6408 19.5606 9.6007C19.5235 9.56052 19.4819 9.54028 19.4358 9.54028H18.3684C18.2666 9.54028 18.1834 9.58517 18.1188 9.67426L16.6495 11.7648L16.0395 9.75474C15.9931 9.61192 15.8916 9.54028 15.7346 9.54028H14.6947C14.6484 9.54028 14.6068 9.56044 14.5701 9.6007C14.533 9.6408 14.5146 9.68339 14.5146 9.72787C14.5146 9.74586 14.6048 10.0093 14.7849 10.5185C14.9651 11.0279 15.1592 11.5773 15.3671 12.1669C15.5751 12.7565 15.6836 13.0693 15.6929 13.1047C14.935 14.1054 14.5563 14.6414 14.5563 14.7128C14.5563 14.829 14.6162 14.887 14.7365 14.887H15.8038C15.9055 14.887 15.9886 14.8424 16.0534 14.7531L19.5884 9.82163C19.6067 9.80394 19.6159 9.77281 19.6159 9.72783V9.72787Z" fill="#003087"/>
<path d="M29.556 9.53838H28.5024C28.3729 9.53838 28.2946 9.68583 28.2669 9.98069C28.0263 9.62345 27.5876 9.44458 26.9498 9.44458C26.2845 9.44458 25.7184 9.68583 25.2518 10.1682C24.785 10.6507 24.5518 11.2181 24.5518 11.8702C24.5518 12.3974 24.7112 12.8172 25.0299 13.1297C25.3488 13.4426 25.7761 13.5988 26.3123 13.5988C26.5803 13.5988 26.8529 13.5451 27.1301 13.438C27.4073 13.3308 27.6243 13.1879 27.7817 13.0092C27.7817 13.0181 27.7723 13.0582 27.754 13.1296C27.7353 13.2012 27.7262 13.255 27.7262 13.2904C27.7262 13.4335 27.7861 13.5048 27.9065 13.5048H28.863C29.0384 13.5048 29.1402 13.4201 29.1678 13.2502L29.7363 9.75276C29.7454 9.6991 29.7316 9.65007 29.6946 9.60534C29.6575 9.56078 29.6114 9.53838 29.556 9.53838V9.53838ZM27.747 12.1784C27.5113 12.4017 27.2271 12.5133 26.8944 12.5133C26.6263 12.5133 26.4093 12.442 26.2429 12.2989C26.0765 12.1563 25.9933 11.9598 25.9933 11.7093C25.9933 11.379 26.1088 11.0996 26.34 10.8718C26.5707 10.644 26.8575 10.5302 27.1994 10.5302C27.4579 10.5302 27.6728 10.6038 27.844 10.7512C28.0148 10.8986 28.1005 11.1019 28.1005 11.361C28.1004 11.6826 27.9826 11.9551 27.747 12.1784Z" fill="#009CDE"/>
<path d="M13.8081 9.53838H12.7545C12.6249 9.53838 12.5466 9.68583 12.5188 9.98069C12.2693 9.62345 11.8303 9.44458 11.2019 9.44458C10.5365 9.44458 9.97036 9.68583 9.50372 10.1682C9.03696 10.6507 8.80371 11.2181 8.80371 11.8702C8.80371 12.3974 8.96315 12.8172 9.282 13.1297C9.60084 13.4426 10.0282 13.5988 10.5642 13.5988C10.8229 13.5988 11.091 13.5451 11.3682 13.438C11.6455 13.3308 11.8673 13.1879 12.0336 13.0092C11.9965 13.1163 11.9782 13.2101 11.9782 13.2904C11.9782 13.4335 12.0382 13.5048 12.1584 13.5048H13.1148C13.2903 13.5048 13.3921 13.4201 13.4198 13.2502L13.9882 9.75276C13.9973 9.6991 13.9834 9.65007 13.9466 9.60534C13.9096 9.56078 13.8635 9.53838 13.8081 9.53838V9.53838ZM11.999 12.185C11.7633 12.4041 11.4744 12.5133 11.1327 12.5133C10.8645 12.5133 10.6496 12.442 10.488 12.2989C10.3262 12.1563 10.2454 11.9598 10.2454 11.7093C10.2454 11.379 10.3609 11.0996 10.592 10.8718C10.8229 10.644 11.1094 10.5301 11.4515 10.5301C11.7101 10.5301 11.925 10.6038 12.0961 10.7512C12.267 10.8986 12.3525 11.1019 12.3525 11.361C12.3525 11.6916 12.2347 11.9663 11.999 12.185V12.185Z" fill="#003087"/>
<path d="M24.3501 7.92412C23.9942 7.68763 23.53 7.56909 22.9569 7.56909H20.7528C20.5679 7.56909 20.4662 7.654 20.4478 7.82365L19.5468 13.2908C19.5374 13.3445 19.5513 13.3936 19.5884 13.4383C19.625 13.483 19.6715 13.5053 19.7269 13.5053H20.8636C20.9745 13.5053 21.0484 13.4473 21.0854 13.3311L21.335 11.7768C21.3442 11.7053 21.3765 11.6472 21.432 11.6025C21.4875 11.5579 21.5567 11.5287 21.64 11.5153C21.7231 11.502 21.8015 11.4953 21.8756 11.4953C21.9495 11.4953 22.0372 11.4999 22.139 11.5088C22.2406 11.5177 22.3055 11.522 22.333 11.522C23.1279 11.522 23.7516 11.3056 24.2045 10.8721C24.6573 10.439 24.8837 9.83825 24.8837 9.06978C24.8838 8.54272 24.7058 8.16082 24.3501 7.924V7.92412ZM22.9292 10.1285C22.7259 10.2625 22.4209 10.3294 22.0143 10.3294L21.5707 10.3429L21.8063 8.90898C21.8247 8.81084 21.8847 8.76161 21.9865 8.76161H22.2359C22.4393 8.76161 22.601 8.77058 22.7213 8.7884C22.8412 8.80634 22.9569 8.86208 23.0678 8.95584C23.1788 9.04967 23.2342 9.18598 23.2342 9.36456C23.2342 9.73991 23.1324 9.99439 22.9292 10.1285Z" fill="#009CDE"/>
</g>
<defs>
<clipPath id="clip0_73_4110">
<rect width="34.0712" height="21.957" fill="white" transform="translate(0.958008 0.0214844)"/>
</clipPath>
</defs>
</svg>
